<svg width="114" height="44" viewBox="0 0 114 44" fill="none" xmlns="http://www.w3.org/2000/svg">
<path d="M1 14.1547C3.75295 16.0858 5.70683 18.9549 6.49521 22.2239C6.40379 19.9927 6.5558 17.7583 6.94854 15.56C7.25136 13.8637 7.73912 12.1147 8.92139 10.8618C10.1037 9.60876 12.16 9.03394 13.5952 9.98864C15.0722 10.9705 15.3024 13.1619 14.5871 14.7812C13.8717 16.4005 12.4565 17.5918 11.0883 18.7215C12.267 18.2999 13.4574 17.8747 14.7013 17.7514C15.9452 17.6281 17.2681 17.8366 18.2726 18.581C19.7641 19.6871 20.2555 21.8141 19.7686 23.6057C19.2817 25.3972 17.977 26.8696 16.4765 27.9676C14.6013 29.3304 12.407 30.1878 10.1046 30.4572C8.91326 30.5941 7.44176 30.4128 6.94854 29.3203C6.66566 28.6938 6.90954 27.5677 7.23594 26.963C7.64393 26.2068 8.30942 25.642 8.86791 25.2404C10.0765 24.3691 11.3331 24.2639 12.7883 24.5821C14.3686 24.9267 16.5554 26.2649 16.7558 27.8696C16.9562 29.4744 15.2145 32.8562 14.3078 34.4882" stroke="#2336DC" stroke-width="2.52667" stroke-linejoin="round"/>
<path d="M31.2926 33.3623C29.7628 33.3623 28.3941 33.0302 27.1865 32.366C25.9989 31.6816 25.063 30.7457 24.3786 29.5581C23.7144 28.3706 23.3823 27.0019 23.3823 25.4521C23.3823 23.9022 23.7144 22.5335 24.3786 21.346C25.0429 20.1584 25.9687 19.2326 27.1563 18.5683C28.3438 17.884 29.7025 17.5418 31.2322 17.5418C32.782 17.5418 34.1507 17.884 35.3382 18.5683C36.5258 19.2326 37.4517 20.1584 38.1159 21.346C38.7801 22.5335 39.1122 23.9022 39.1122 25.4521C39.1122 27.0019 38.7801 28.3706 38.1159 29.5581C37.4517 30.7457 36.5258 31.6816 35.3382 32.366C34.1708 33.0302 32.8223 33.3623 31.2926 33.3623ZM31.2926 29.6789C32.0373 29.6789 32.6914 29.4978 33.255 29.1355C33.8186 28.7732 34.2513 28.28 34.5533 27.6561C34.8753 27.012 35.0363 26.2773 35.0363 25.4521C35.0363 24.6268 34.8753 23.9022 34.5533 23.2783C34.2312 22.6342 33.7783 22.131 33.1946 21.7687C32.6311 21.4064 31.9769 21.2252 31.2322 21.2252C30.5076 21.2252 29.8534 21.4064 29.2697 21.7687C28.7061 22.131 28.2633 22.6342 27.9413 23.2783C27.6192 23.9022 27.4582 24.6268 27.4582 25.4521C27.4582 26.2773 27.6192 27.012 27.9413 27.6561C28.2633 28.28 28.7162 28.7732 29.2999 29.1355C29.8836 29.4978 30.5478 29.6789 31.2926 29.6789ZM48.8356 33.3623C47.3059 33.3623 45.9372 33.0302 44.7295 32.366C43.542 31.6816 42.606 30.7457 41.9217 29.5581C41.2575 28.3706 40.9254 27.0019 40.9254 25.4521C40.9254 23.9022 41.2575 22.5335 41.9217 21.346C42.5859 20.1584 43.5118 19.2326 44.6993 18.5683C45.8869 17.884 47.2455 17.5418 48.7752 17.5418C50.3251 17.5418 51.6938 17.884 52.8813 18.5683C54.0688 19.2326 54.9947 20.1584 55.6589 21.346C56.3232 22.5335 56.6553 23.9022 56.6553 25.4521C56.6553 27.0019 56.3232 28.3706 55.6589 29.5581C54.9947 30.7457 54.0688 31.6816 52.8813 32.366C51.7139 33.0302 50.3653 33.3623 48.8356 33.3623ZM48.8356 29.6789C49.5803 29.6789 50.2345 29.4978 50.7981 29.1355C51.3617 28.7732 51.7944 28.28 52.0963 27.6561C52.4184 27.012 52.5794 26.2773 52.5794 25.4521C52.5794 24.6268 52.4184 23.9022 52.0963 23.2783C51.7743 22.6342 51.3214 22.131 50.7377 21.7687C50.1741 21.4064 49.52 21.2252 48.7752 21.2252C48.0506 21.2252 47.3965 21.4064 46.8128 21.7687C46.2492 22.131 45.8064 22.6342 45.4843 23.2783C45.1623 23.9022 45.0013 24.6268 45.0013 25.4521C45.0013 26.2773 45.1623 27.012 45.4843 27.6561C45.8064 28.28 46.2592 28.7732 46.843 29.1355C47.4267 29.4978 48.0909 29.6789 48.8356 29.6789ZM63.0878 29.1656L60.7026 26.4182L68.4317 17.9041H73.1718L63.0878 29.1656ZM59.2836 33V11.8658H63.2689V33H59.2836ZM68.945 33L63.9331 25.6936L66.5296 22.9461L73.6247 33H68.945ZM75.7709 33V17.9041H79.7562V33H75.7709ZM77.7635 15.4586C77.1597 15.4586 76.6263 15.2372 76.1634 14.7944C75.7004 14.3314 75.469 13.788 75.469 13.164C75.469 12.5401 75.7004 12.0067 76.1634 11.5639C76.6263 11.1009 77.1597 10.8694 77.7635 10.8694C78.3875 10.8694 78.9209 11.1009 79.3637 11.5639C79.8266 12.0067 80.0581 12.5401 80.0581 13.164C80.0581 13.788 79.8266 14.3314 79.3637 14.7944C78.9209 15.2372 78.3875 15.4586 77.7635 15.4586ZM83.4311 33V17.9041H87.1749L87.4164 20.6818V33H83.4311ZM93.4246 33V25.2709L97.4099 24.3652V33H93.4246ZM93.4246 25.2709C93.4246 24.2444 93.3038 23.4493 93.0623 22.8858C92.8409 22.3222 92.5188 21.9196 92.0961 21.6781C91.6734 21.4164 91.1803 21.2856 90.6167 21.2856C89.5902 21.2655 88.7952 21.5775 88.2316 22.2215C87.6881 22.8656 87.4164 23.8217 87.4164 25.0898H86.088C86.088 23.4795 86.3194 22.1209 86.7824 21.0139C87.2655 19.8867 87.9297 19.0313 88.775 18.4476C89.6204 17.8437 90.6167 17.5418 91.764 17.5418C93.5957 17.5418 94.9945 18.1054 95.9607 19.2326C96.9469 20.3396 97.43 22.0505 97.4099 24.3652L93.4246 25.2709ZM106.237 33.3623C105.271 33.3623 104.365 33.2214 103.519 32.9396C102.674 32.6377 101.929 32.215 101.285 31.6716C100.641 31.108 100.138 30.4236 99.7757 29.6185L103.187 28.0486C103.489 28.5316 103.902 28.9543 104.425 29.3166C104.949 29.6588 105.552 29.8299 106.237 29.8299C106.901 29.8299 107.414 29.7393 107.776 29.5581C108.139 29.3569 108.32 29.0751 108.32 28.7128C108.32 28.3505 108.169 28.0888 107.867 27.9278C107.585 27.7466 107.193 27.5957 106.69 27.4749L105.301 27.1126C103.852 26.7302 102.704 26.1263 101.859 25.3011C101.034 24.4557 100.621 23.4896 100.621 22.4027C100.621 20.8529 101.114 19.6552 102.1 18.8099C103.107 17.9645 104.526 17.5418 106.357 17.5418C107.303 17.5418 108.179 17.6827 108.984 17.9645C109.809 18.2463 110.514 18.6388 111.098 19.142C111.681 19.6452 112.084 20.2289 112.305 20.8931L109.014 22.4027C108.873 22.0001 108.531 21.6781 107.988 21.4366C107.444 21.1749 106.901 21.0441 106.357 21.0441C105.814 21.0441 105.391 21.1648 105.089 21.4064C104.808 21.6278 104.667 21.9398 104.667 22.3423C104.667 22.604 104.808 22.8254 105.089 23.0065C105.371 23.1676 105.774 23.3084 106.297 23.4292L108.26 23.9123C109.246 24.1538 110.031 24.5463 110.615 25.0898C111.218 25.6131 111.651 26.2069 111.913 26.8711C112.195 27.5152 112.335 28.1492 112.335 28.7732C112.335 29.6789 112.064 30.484 111.52 31.1885C110.997 31.8728 110.272 32.4062 109.346 32.7887C108.441 33.1711 107.404 33.3623 106.237 33.3623Z" fill="#101928"/>
</svg>
